<?xml version="1.0" standalone="no"?>
<svg xmlns:xlink="http://www.w3.org/1999/xlink" id="wave" style="transform:rotate(0deg); transition: 0.3s" viewBox="0 0 1440 220" version="1.1" xmlns="http://www.w3.org/2000/svg"><defs><linearGradient id="sw-gradient-0" x1="0" x2="0" y1="1" y2="0"><stop stop-color="rgba(209, 241, 255, 1)" offset="0%"/><stop stop-color="rgba(209, 241, 255, 1)" offset="100%"/></linearGradient></defs><path style="transform:translate(0, 0px); opacity:1" fill="url(#sw-gradient-0)" d="M0,110L40,124.7C80,139,160,169,240,168.7C320,169,400,139,480,110C560,81,640,51,720,47.7C800,44,880,66,960,95.3C1040,125,1120,161,1200,161.3C1280,161,1360,125,1440,113.7C1520,103,1600,117,1680,121C1760,125,1840,117,1920,128.3C2000,139,2080,169,2160,161.3C2240,154,2320,110,2400,91.7C2480,73,2560,81,2640,88C2720,95,2800,103,2880,95.3C2960,88,3040,66,3120,47.7C3200,29,3280,15,3360,40.3C3440,66,3520,132,3600,146.7C3680,161,3760,125,3840,102.7C3920,81,4000,73,4080,66C4160,59,4240,51,4320,47.7C4400,44,4480,44,4560,66C4640,88,4720,132,4800,124.7C4880,117,4960,59,5040,36.7C5120,15,5200,29,5280,29.3C5360,29,5440,15,5520,36.7C5600,59,5680,117,5720,146.7L5760,176L5760,220L5720,220C5680,220,5600,220,5520,220C5440,220,5360,220,5280,220C5200,220,5120,220,5040,220C4960,220,4880,220,4800,220C4720,220,4640,220,4560,220C4480,220,4400,220,4320,220C4240,220,4160,220,4080,220C4000,220,3920,220,3840,220C3760,220,3680,220,3600,220C3520,220,3440,220,3360,220C3280,220,3200,220,3120,220C3040,220,2960,220,2880,220C2800,220,2720,220,2640,220C2560,220,2480,220,2400,220C2320,220,2240,220,2160,220C2080,220,2000,220,1920,220C1840,220,1760,220,1680,220C1600,220,1520,220,1440,220C1360,220,1280,220,1200,220C1120,220,1040,220,960,220C880,220,800,220,720,220C640,220,560,220,480,220C400,220,320,220,240,220C160,220,80,220,40,220L0,220Z"/></svg>